<svg width="40" height="40" viewBox="0 0 40 40" fill="none" xmlns="http://www.w3.org/2000/svg">
<path d="M20 2.5C18.4375 2.5 17.1875 3.75 17.1875 5.3125C17.1875 6.875 18.4375 8.125 20 8.125C21.5625 8.125 22.8125 6.875 22.8125 5.3125C22.8125 3.75 21.5625 2.5 20 2.5Z" fill="white"/>
<path d="M28.7496 4.87505C27.4371 4.12505 25.6871 4.56255 24.9371 5.87505C24.1871 7.18755 24.6246 8.93755 25.9371 9.68755C27.2496 10.4376 28.9996 10.0001 29.7496 8.68755C30.4996 7.37505 30.1246 5.62505 28.7496 4.87505Z" fill="white"/>
<path d="M35.125 11.25C34.375 9.9375 32.625 9.4375 31.3125 10.25C30 11 29.5 12.75 30.3125 14.0625C31.0625 15.375 32.8125 15.875 34.125 15.0625C35.4375 14.25 35.9375 12.5625 35.125 11.25Z" fill="white"/>
<path d="M37.5 20C37.5 18.4375 36.25 17.1875 34.6875 17.1875C33.125 17.1875 31.875 18.4375 31.875 20C31.875 21.5625 33.125 22.8125 34.6875 22.8125C36.25 22.8125 37.5 21.5625 37.5 20Z" fill="white"/>
<path d="M35.1246 28.7501C35.8746 27.4376 35.4371 25.6876 34.1246 24.9376C32.8121 24.1876 31.0621 24.6251 30.3121 25.9376C29.5621 27.2501 29.9996 29.0001 31.3121 29.7501C32.6246 30.5626 34.3746 30.1251 35.1246 28.7501Z" fill="white"/>
<path d="M28.75 35.125C30.0625 34.375 30.5625 32.625 29.75 31.3125C29 30 27.25 29.5 25.9375 30.3125C24.625 31.0625 24.125 32.8125 24.9375 34.125C25.6875 35.4375 27.375 35.9375 28.75 35.125Z" fill="white"/>
<path d="M20 37.5C21.5625 37.5 22.8125 36.25 22.8125 34.6875C22.8125 33.125 21.5625 31.875 20 31.875C18.4375 31.875 17.1875 33.125 17.1875 34.6875C17.1875 36.25 18.4375 37.5 20 37.5Z" fill="white"/>
<path d="M11.2503 35.1251C12.5628 35.8751 14.3128 35.4376 15.0628 34.1251C15.8128 32.8126 15.3753 31.0626 14.0628 30.3126C12.7503 29.5626 11.0003 30.0001 10.2503 31.3126C9.43781 32.6251 9.87531 34.3751 11.2503 35.1251Z" fill="white"/>
<path d="M4.875 28.75C5.625 30.0625 7.375 30.5625 8.6875 29.75C10 28.9375 10.5 27.25 9.6875 25.9375C8.9375 24.625 7.18749 24.125 5.87499 24.9375C4.5625 25.75 4.0625 27.4375 4.875 28.75Z" fill="white"/>
<path d="M2.5 20C2.5 21.5625 3.75 22.8125 5.3125 22.8125C6.875 22.8125 8.125 21.5625 8.125 20C8.125 18.4375 6.875 17.1875 5.3125 17.1875C3.75 17.1875 2.5 18.4375 2.5 20Z" fill="white"/>
<path d="M4.87456 11.25C4.12456 12.5625 4.56206 14.3125 5.87456 15.0625C7.18706 15.8125 8.93706 15.375 9.68706 14.0625C10.4371 12.75 9.99956 11 8.68706 10.25C7.37456 9.5 5.62456 9.875 4.87456 11.25Z" fill="white"/>
<path d="M11.25 4.875C9.9375 5.625 9.4375 7.375 10.25 8.6875C11 10 12.75 10.5 14.0625 9.6875C15.375 8.9375 15.875 7.18749 15.0625 5.87499C14.3125 4.5625 12.625 4.0625 11.25 4.875Z" fill="white"/>
</svg>
