<svg width="40" height="40" viewBox="0 0 40 40" fill="none" xmlns="http://www.w3.org/2000/svg">
<path d="M19.9566 10.9563C19.4504 10.9563 18.9441 10.9813 18.4441 11.0313C17.8379 11.0938 17.3316 11.475 17.1004 12.0563C16.6504 13.1938 17.3754 14.7813 18.2566 16.125C17.9691 16.075 17.6566 16 17.3316 15.8938C15.5191 15.3188 13.9191 13.3875 13.9004 13.3688C13.5004 12.8813 12.8004 12.7625 12.2691 13.1C8.94414 15.1813 6.96289 18.5188 6.96289 22.0375C6.96289 28.15 12.7879 33.1188 19.9566 33.1188C27.1254 33.1188 32.9504 28.15 32.9504 22.0375C32.9504 15.925 27.1254 10.9563 19.9566 10.9563ZM19.9566 30.6188C14.1691 30.6188 9.46289 26.7688 9.46289 22.0375C9.46289 20.7438 9.82539 19.4938 10.4816 18.3688C10.5566 18.6625 10.6566 18.925 10.7629 19.1375C10.9816 19.575 11.4191 19.825 11.8754 19.825C12.0566 19.825 12.2441 19.7875 12.4191 19.7C13.0379 19.4063 13.3004 18.6625 13.0129 18.0375C12.8941 17.775 12.5941 16.9375 13.2691 16.2688C14.1004 17.0063 15.2629 17.8563 16.5754 18.275C19.0504 19.0625 20.8879 18.6313 21.0879 18.5813C21.5066 18.475 21.8441 18.1563 21.9754 17.7438C22.1066 17.3313 22.0129 16.875 21.7254 16.55C20.6254 15.2875 20.0379 14.325 19.7379 13.6875C24.4629 14.4688 25.3941 18.2688 25.4379 18.4563C25.5629 19.0438 26.0816 19.4438 26.6566 19.4438C26.7441 19.4438 26.8254 19.4375 26.9129 19.4188C27.5879 19.275 28.0191 18.6125 27.8816 17.9375C27.7504 17.3063 27.4441 16.4875 26.9254 15.6375C29.0816 17.2125 30.4441 19.4938 30.4441 22.0313C30.4441 26.7625 25.7379 30.6125 19.9504 30.6125L19.9566 30.6188Z" fill="white"/>
<path d="M27.7375 21.8812C27.5563 21.7687 27.3688 21.6562 27.175 21.575C25.5875 20.925 23.9563 20.9437 22.3313 21.3812C21.5563 21.5875 20.7875 21.7437 20.0125 21.75C19.2375 21.75 18.4688 21.5875 17.6938 21.3812C16.0688 20.9437 14.4375 20.925 12.85 21.575C12.65 21.6562 12.4625 21.7625 12.2875 21.8812C11.9438 22.1 11.7875 22.3875 11.8688 22.825C12.0188 23.6375 12.1125 24.4687 12.2625 25.2812C12.4125 26.0875 12.95 26.6375 13.7625 26.7125C14.875 26.8187 15.9875 26.875 17.1063 26.8937C18 26.9125 18.6375 26.5062 18.8938 25.5937C19.1313 24.7562 19.375 23.9187 19.65 23.0875C19.7063 22.9125 19.8938 22.7812 20.025 22.6312C20.15 22.7812 20.3438 22.9125 20.4 23.0875C20.675 23.9187 20.9188 24.7562 21.1563 25.5937C21.4125 26.5062 22.05 26.9125 22.9438 26.8937C24.0563 26.875 25.175 26.8187 26.2875 26.7125C27.1 26.6375 27.6438 26.0812 27.7875 25.2812C27.9375 24.4625 28.0313 23.6375 28.1813 22.825C28.2625 22.3937 28.1 22.1 27.7625 21.8812H27.7375Z" fill="white"/>
<path d="M33.9377 12.0813C33.3314 11.3188 32.6564 10.6125 31.9314 9.9688C33.1064 9.45005 33.9314 8.27505 33.9314 6.9063C33.9314 5.05005 32.4314 3.55005 30.5752 3.55005C28.7189 3.55005 27.2189 5.05005 27.2189 6.9063C27.2189 6.93755 27.2252 6.9688 27.2314 7.00005C25.5814 6.2938 23.8127 5.8188 21.9814 5.6188C18.7189 5.26255 15.5627 5.7813 12.7752 6.97505C12.7752 6.95005 12.7814 6.9313 12.7814 6.9063C12.7814 5.05005 11.2814 3.55005 9.42519 3.55005C7.56894 3.55005 6.06894 5.05005 6.06894 6.9063C6.06894 8.2688 6.88144 9.4313 8.05019 9.96255C5.23144 12.4625 3.29394 15.85 2.81269 19.7188C2.30644 23.7813 3.46269 27.8313 6.06269 31.125C8.90644 34.7188 13.2627 37.0751 18.0252 37.5938C18.7002 37.6688 19.3752 37.7063 20.0439 37.7063C28.6877 37.7063 36.1752 31.6688 37.1939 23.5C37.7002 19.4375 36.5439 15.3875 33.9439 12.0938L33.9377 12.0813ZM34.7127 23.1813C33.7814 30.6375 26.4127 35.9875 18.2939 35.1063C14.1939 34.6625 10.4502 32.6438 8.02519 29.575C5.83769 26.8125 4.86894 23.4188 5.29394 20.0313C6.22519 12.575 13.5939 7.22505 21.7127 8.1063C25.8127 8.55005 29.5564 10.5688 31.9814 13.6375C34.1689 16.4 35.1377 19.7938 34.7127 23.1813Z" fill="white"/>
</svg>
