<svg width="40" height="40" viewBox="0 0 40 40" fill="none" xmlns="http://www.w3.org/2000/svg">
<path d="M26.1254 9.43745C25.3754 8.99995 24.4379 9.24995 24.0004 9.99995C23.5629 10.7499 23.8129 11.6874 24.5629 12.1249C24.8129 12.2499 25.0629 12.3124 25.3129 12.3124C25.8754 12.3124 26.3754 12.0624 26.6879 11.5624C27.0629 10.8124 26.8129 9.87495 26.1254 9.43745Z" fill="white"/>
<path d="M9.375 21.5625C10.25 21.5625 10.9375 20.875 10.9375 20C10.9375 19.125 10.25 18.4375 9.375 18.4375C8.5 18.4375 7.8125 19.125 7.8125 20C7.8125 20.875 8.5 21.5625 9.375 21.5625Z" fill="white"/>
<path d="M29.1879 16.2499C29.4379 16.2499 29.7504 16.1874 29.9379 16.0624C30.6879 15.6249 30.9379 14.6874 30.5004 13.9374C30.0629 13.1874 29.1254 12.9374 28.3754 13.3749C27.6254 13.8124 27.3754 14.7499 27.8129 15.4999C28.1254 15.9374 28.6879 16.2499 29.1879 16.2499Z" fill="white"/>
<path d="M10.0004 16.0624C10.2504 16.1874 10.5004 16.2499 10.7504 16.2499C11.3129 16.2499 11.8129 15.9374 12.1254 15.4374C12.5629 14.6874 12.3129 13.7499 11.5629 13.3124C10.8129 12.8749 9.87543 13.1249 9.43793 13.8749C9.00043 14.6249 9.25043 15.6249 10.0004 16.0624Z" fill="white"/>
<path d="M30.0004 23.9374C29.2504 23.4999 28.3129 23.7499 27.8754 24.4999C27.4379 25.2499 27.6879 26.1874 28.4379 26.6249C28.6879 26.7499 28.9379 26.8124 29.1879 26.8124C29.7504 26.8124 30.2504 26.5624 30.5629 25.9999C31.0004 25.3124 30.7504 24.3749 30.0004 23.9374Z" fill="white"/>
<path d="M30.625 18.4375C29.75 18.4375 29.0625 19.125 29.0625 20C29.0625 20.875 29.75 21.5625 30.625 21.5625C31.5 21.5625 32.1875 20.875 32.1875 20C32.1875 19.125 31.5 18.4375 30.625 18.4375Z" fill="white"/>
<path d="M20 7.8125C19.9375 7.8125 19.9375 7.8125 19.9375 7.8125C19.0625 7.8125 18.375 8.5 18.375 9.375C18.375 10.25 19.0625 10.9375 19.9375 10.9375C20.8125 10.9375 21.5 10.25 21.5 9.375C21.5625 8.5 20.875 7.8125 20 7.8125Z" fill="white"/>
<path d="M13.8754 9.43745C13.1254 9.87495 12.8754 10.8124 13.3129 11.5624C13.6254 12.0624 14.1254 12.3124 14.6879 12.3124C14.9379 12.3124 15.2504 12.2499 15.5004 12.1249C16.2504 11.6874 16.5004 10.7499 16.0629 9.99995C15.5629 9.24995 14.6254 8.99995 13.8754 9.43745Z" fill="white"/>
<path d="M10.0004 23.9999C9.25043 24.4374 9.00043 25.3749 9.43793 26.1249C9.75043 26.6249 10.2504 26.8749 10.8129 26.8749C11.0629 26.8749 11.3754 26.8124 11.6254 26.6874C12.3754 26.2499 12.6254 25.3124 12.1879 24.5624C11.7504 23.8124 10.7504 23.5624 10.0004 23.9999Z" fill="white"/>
<path d="M20 2.5C10.375 2.5 2.5 10.375 2.5 20C2.5 29.625 10.375 37.5 20 37.5C29.625 37.5 37.5 29.625 37.5 20C37.5 10.375 29.625 2.5 20 2.5ZM28.875 32.0625C28.4375 29.1875 26.6875 26.75 24.1875 25.4375C25.8125 24.1875 26.875 22.1875 26.875 20C26.875 16.1875 23.8125 13.125 20 13.125C16.1875 13.125 13.125 16.1875 13.125 20C13.125 22.1875 14.1875 24.1875 15.8125 25.4375C13.375 26.75 11.5625 29.1875 11.125 32.0625C7.375 29.3125 5 24.9375 5 20C5 11.75 11.75 5 20 5C28.25 5 35 11.75 35 20C35 24.9375 32.625 29.3125 28.875 32.0625ZM20 35C17.6875 35 15.4375 34.4375 13.5 33.5V33.4375C13.5 29.875 16.4375 26.9375 20 26.9375C23.5625 26.9375 26.5 29.875 26.5 33.4375V33.5C24.5625 34.4375 22.3125 35 20 35ZM15.625 20C15.625 17.5625 17.625 15.625 20 15.625C22.375 15.625 24.375 17.625 24.375 20C24.375 22.375 22.375 24.375 20 24.375C17.625 24.375 15.625 22.4375 15.625 20Z" fill="white"/>
</svg>
