<svg width="40" height="40" viewBox="0 0 40 40" fill="none" xmlns="http://www.w3.org/2000/svg">
<path d="M10.9375 24.125C10.9375 25.9375 9.5 27.4375 7.625 27.4375C5.75 27.4375 4.375 25.9375 4.375 24.125C4.375 22.3125 5.8125 20.8125 7.6875 20.8125H11V24.125H10.9375Z" fill="white"/>
<path d="M12.625 24.125C12.625 22.3125 14.0625 20.8125 15.9375 20.8125C17.8125 20.8125 19.25 22.25 19.25 24.125V32.3125C19.25 34.125 17.8125 35.625 15.9375 35.625C14.0625 35.625 12.625 34.1875 12.625 32.3125V24.125Z" fill="white"/>
<path d="M15.875 10.9375C14.0625 10.9375 12.5625 9.5 12.5625 7.625C12.5625 5.8125 14 4.3125 15.875 4.3125C17.75 4.3125 19.1875 5.75 19.1875 7.625V10.9375H15.875Z" fill="white"/>
<path d="M15.875 12.625C17.6875 12.625 19.1875 14.0625 19.1875 15.9375C19.1875 17.75 17.75 19.25 15.875 19.25H7.6875C5.875 19.25 4.375 17.8125 4.375 15.9375C4.375 14.0625 5.8125 12.625 7.6875 12.625H15.875Z" fill="white"/>
<path d="M29.0625 15.875C29.0625 14.0625 30.5 12.5625 32.375 12.5625C34.25 12.5625 35.6875 14 35.6875 15.875C35.6875 17.75 34.25 19.1875 32.375 19.1875H29.0625V15.875Z" fill="white"/>
<path d="M27.375 15.875C27.375 17.6875 25.9375 19.1875 24.0625 19.1875C22.1875 19.1875 20.75 17.75 20.75 15.875V7.6875C20.75 5.875 22.1875 4.375 24.0625 4.375C25.9375 4.375 27.375 5.8125 27.375 7.6875V15.875Z" fill="white"/>
<path d="M24.125 29.0625C25.9375 29.0625 27.4375 30.5 27.4375 32.375C27.4375 34.25 25.9375 35.625 24.125 35.625C22.3125 35.625 20.8125 34.1875 20.8125 32.3125V29H24.125V29.0625Z" fill="white"/>
<path d="M24.125 27.4375C22.3125 27.4375 20.8125 26 20.8125 24.125C20.8125 22.25 22.25 20.8125 24.125 20.8125H32.375C34.1875 20.8125 35.6875 22.25 35.6875 24.125C35.6875 26 34.25 27.4375 32.375 27.4375H24.125Z" fill="white"/>
</svg>
